<mxfile host="app.diagrams.net" modified="2023-10-12T17:46:00.907Z" agent="Mozilla/5.0 (Macintosh; Intel Mac OS X 10_15_7) AppleWebKit/537.36 (KHTML, like Gecko) Chrome/118.0.0.0 Safari/537.36" etag="WtHG6AWJ0T6u8ml9dUgJ" version="22.0.4" type="device" pages="2">
  <diagram id="R2lEEEUBdFMjLlhIrx00" name="Page-1">
    <mxGraphModel dx="1337" dy="849" grid="1" gridSize="10" guides="1" tooltips="1" connect="1" arrows="1" fold="1" page="1" pageScale="1" pageWidth="1169" pageHeight="827" math="0" shadow="0" extFonts="Permanent Marker^https://fonts.googleapis.com/css?family=Permanent+Marker">
      <root>
        <mxCell id="0" />
        <mxCell id="1" parent="0" />
        <mxCell id="C-vyLk0tnHw3VtMMgP7b-1" value="" style="edgeStyle=entityRelationEdgeStyle;endArrow=ERoneToMany;startArrow=ERone;endFill=0;startFill=0;entryX=0;entryY=0.5;entryDx=0;entryDy=0;" parent="1" source="C-vyLk0tnHw3VtMMgP7b-24" target="Tu_fgQsAB8VPxuRS4HVX-4" edge="1">
          <mxGeometry width="100" height="100" relative="1" as="geometry">
            <mxPoint x="384" y="860" as="sourcePoint" />
            <mxPoint x="484" y="760" as="targetPoint" />
            <Array as="points">
              <mxPoint x="384" y="300" />
            </Array>
          </mxGeometry>
        </mxCell>
        <mxCell id="C-vyLk0tnHw3VtMMgP7b-2" value="order_products" style="shape=table;startSize=30;container=1;collapsible=1;childLayout=tableLayout;fixedRows=1;rowLines=0;fontStyle=1;align=center;resizeLast=1;" parent="1" vertex="1">
          <mxGeometry x="434" y="230" width="250" height="160" as="geometry" />
        </mxCell>
        <mxCell id="Tu_fgQsAB8VPxuRS4HVX-4" style="shape=partialRectangle;collapsible=0;dropTarget=0;pointerEvents=0;fillColor=none;points=[[0,0.5],[1,0.5]];portConstraint=eastwest;top=0;left=0;right=0;bottom=0;" parent="C-vyLk0tnHw3VtMMgP7b-2" vertex="1">
          <mxGeometry y="30" width="250" height="30" as="geometry" />
        </mxCell>
        <mxCell id="Tu_fgQsAB8VPxuRS4HVX-5" value="FK" style="shape=partialRectangle;overflow=hidden;connectable=0;fillColor=none;top=0;left=0;bottom=0;right=0;" parent="Tu_fgQsAB8VPxuRS4HVX-4" vertex="1">
          <mxGeometry width="30" height="30" as="geometry">
            <mxRectangle width="30" height="30" as="alternateBounds" />
          </mxGeometry>
        </mxCell>
        <mxCell id="Tu_fgQsAB8VPxuRS4HVX-6" value="order_id int NOT NULL" style="shape=partialRectangle;overflow=hidden;connectable=0;fillColor=none;top=0;left=0;bottom=0;right=0;align=left;spacingLeft=6;" parent="Tu_fgQsAB8VPxuRS4HVX-4" vertex="1">
          <mxGeometry x="30" width="220" height="30" as="geometry">
            <mxRectangle width="220" height="30" as="alternateBounds" />
          </mxGeometry>
        </mxCell>
        <mxCell id="C-vyLk0tnHw3VtMMgP7b-6" value="" style="shape=partialRectangle;collapsible=0;dropTarget=0;pointerEvents=0;fillColor=none;points=[[0,0.5],[1,0.5]];portConstraint=eastwest;top=0;left=0;right=0;bottom=0;" parent="C-vyLk0tnHw3VtMMgP7b-2" vertex="1">
          <mxGeometry y="60" width="250" height="30" as="geometry" />
        </mxCell>
        <mxCell id="C-vyLk0tnHw3VtMMgP7b-7" value="FK" style="shape=partialRectangle;overflow=hidden;connectable=0;fillColor=none;top=0;left=0;bottom=0;right=0;" parent="C-vyLk0tnHw3VtMMgP7b-6" vertex="1">
          <mxGeometry width="30" height="30" as="geometry">
            <mxRectangle width="30" height="30" as="alternateBounds" />
          </mxGeometry>
        </mxCell>
        <mxCell id="C-vyLk0tnHw3VtMMgP7b-8" value="product_id int NOT NULL" style="shape=partialRectangle;overflow=hidden;connectable=0;fillColor=none;top=0;left=0;bottom=0;right=0;align=left;spacingLeft=6;" parent="C-vyLk0tnHw3VtMMgP7b-6" vertex="1">
          <mxGeometry x="30" width="220" height="30" as="geometry">
            <mxRectangle width="220" height="30" as="alternateBounds" />
          </mxGeometry>
        </mxCell>
        <mxCell id="C-vyLk0tnHw3VtMMgP7b-9" value="" style="shape=partialRectangle;collapsible=0;dropTarget=0;pointerEvents=0;fillColor=none;points=[[0,0.5],[1,0.5]];portConstraint=eastwest;top=0;left=0;right=0;bottom=0;" parent="C-vyLk0tnHw3VtMMgP7b-2" vertex="1">
          <mxGeometry y="90" width="250" height="30" as="geometry" />
        </mxCell>
        <mxCell id="C-vyLk0tnHw3VtMMgP7b-10" value="" style="shape=partialRectangle;overflow=hidden;connectable=0;fillColor=none;top=0;left=0;bottom=0;right=0;" parent="C-vyLk0tnHw3VtMMgP7b-9" vertex="1">
          <mxGeometry width="30" height="30" as="geometry">
            <mxRectangle width="30" height="30" as="alternateBounds" />
          </mxGeometry>
        </mxCell>
        <mxCell id="C-vyLk0tnHw3VtMMgP7b-11" value="add_to_cart_order int" style="shape=partialRectangle;overflow=hidden;connectable=0;fillColor=none;top=0;left=0;bottom=0;right=0;align=left;spacingLeft=6;" parent="C-vyLk0tnHw3VtMMgP7b-9" vertex="1">
          <mxGeometry x="30" width="220" height="30" as="geometry">
            <mxRectangle width="220" height="30" as="alternateBounds" />
          </mxGeometry>
        </mxCell>
        <mxCell id="Tu_fgQsAB8VPxuRS4HVX-1" style="shape=partialRectangle;collapsible=0;dropTarget=0;pointerEvents=0;fillColor=none;points=[[0,0.5],[1,0.5]];portConstraint=eastwest;top=0;left=0;right=0;bottom=0;" parent="C-vyLk0tnHw3VtMMgP7b-2" vertex="1">
          <mxGeometry y="120" width="250" height="30" as="geometry" />
        </mxCell>
        <mxCell id="Tu_fgQsAB8VPxuRS4HVX-2" style="shape=partialRectangle;overflow=hidden;connectable=0;fillColor=none;top=0;left=0;bottom=0;right=0;" parent="Tu_fgQsAB8VPxuRS4HVX-1" vertex="1">
          <mxGeometry width="30" height="30" as="geometry">
            <mxRectangle width="30" height="30" as="alternateBounds" />
          </mxGeometry>
        </mxCell>
        <mxCell id="Tu_fgQsAB8VPxuRS4HVX-3" value="reordered bool" style="shape=partialRectangle;overflow=hidden;connectable=0;fillColor=none;top=0;left=0;bottom=0;right=0;align=left;spacingLeft=6;" parent="Tu_fgQsAB8VPxuRS4HVX-1" vertex="1">
          <mxGeometry x="30" width="220" height="30" as="geometry">
            <mxRectangle width="220" height="30" as="alternateBounds" />
          </mxGeometry>
        </mxCell>
        <mxCell id="C-vyLk0tnHw3VtMMgP7b-13" value="products" style="shape=table;startSize=30;container=1;collapsible=1;childLayout=tableLayout;fixedRows=1;rowLines=0;fontStyle=1;align=center;resizeLast=1;" parent="1" vertex="1">
          <mxGeometry x="834" y="230" width="250" height="160" as="geometry" />
        </mxCell>
        <mxCell id="C-vyLk0tnHw3VtMMgP7b-14" value="" style="shape=partialRectangle;collapsible=0;dropTarget=0;pointerEvents=0;fillColor=none;points=[[0,0.5],[1,0.5]];portConstraint=eastwest;top=0;left=0;right=0;bottom=1;" parent="C-vyLk0tnHw3VtMMgP7b-13" vertex="1">
          <mxGeometry y="30" width="250" height="30" as="geometry" />
        </mxCell>
        <mxCell id="C-vyLk0tnHw3VtMMgP7b-15" value="PK" style="shape=partialRectangle;overflow=hidden;connectable=0;fillColor=none;top=0;left=0;bottom=0;right=0;fontStyle=1;" parent="C-vyLk0tnHw3VtMMgP7b-14" vertex="1">
          <mxGeometry width="30" height="30" as="geometry">
            <mxRectangle width="30" height="30" as="alternateBounds" />
          </mxGeometry>
        </mxCell>
        <mxCell id="C-vyLk0tnHw3VtMMgP7b-16" value="product_id int NOT NULL " style="shape=partialRectangle;overflow=hidden;connectable=0;fillColor=none;top=0;left=0;bottom=0;right=0;align=left;spacingLeft=6;fontStyle=5;" parent="C-vyLk0tnHw3VtMMgP7b-14" vertex="1">
          <mxGeometry x="30" width="220" height="30" as="geometry">
            <mxRectangle width="220" height="30" as="alternateBounds" />
          </mxGeometry>
        </mxCell>
        <mxCell id="C-vyLk0tnHw3VtMMgP7b-20" value="" style="shape=partialRectangle;collapsible=0;dropTarget=0;pointerEvents=0;fillColor=none;points=[[0,0.5],[1,0.5]];portConstraint=eastwest;top=0;left=0;right=0;bottom=0;" parent="C-vyLk0tnHw3VtMMgP7b-13" vertex="1">
          <mxGeometry y="60" width="250" height="30" as="geometry" />
        </mxCell>
        <mxCell id="C-vyLk0tnHw3VtMMgP7b-21" value="" style="shape=partialRectangle;overflow=hidden;connectable=0;fillColor=none;top=0;left=0;bottom=0;right=0;" parent="C-vyLk0tnHw3VtMMgP7b-20" vertex="1">
          <mxGeometry width="30" height="30" as="geometry">
            <mxRectangle width="30" height="30" as="alternateBounds" />
          </mxGeometry>
        </mxCell>
        <mxCell id="C-vyLk0tnHw3VtMMgP7b-22" value="product_name varchar(255)" style="shape=partialRectangle;overflow=hidden;connectable=0;fillColor=none;top=0;left=0;bottom=0;right=0;align=left;spacingLeft=6;" parent="C-vyLk0tnHw3VtMMgP7b-20" vertex="1">
          <mxGeometry x="30" width="220" height="30" as="geometry">
            <mxRectangle width="220" height="30" as="alternateBounds" />
          </mxGeometry>
        </mxCell>
        <mxCell id="Tu_fgQsAB8VPxuRS4HVX-22" style="shape=partialRectangle;collapsible=0;dropTarget=0;pointerEvents=0;fillColor=none;points=[[0,0.5],[1,0.5]];portConstraint=eastwest;top=0;left=0;right=0;bottom=0;" parent="C-vyLk0tnHw3VtMMgP7b-13" vertex="1">
          <mxGeometry y="90" width="250" height="30" as="geometry" />
        </mxCell>
        <mxCell id="Tu_fgQsAB8VPxuRS4HVX-23" style="shape=partialRectangle;overflow=hidden;connectable=0;fillColor=none;top=0;left=0;bottom=0;right=0;" parent="Tu_fgQsAB8VPxuRS4HVX-22" vertex="1">
          <mxGeometry width="30" height="30" as="geometry">
            <mxRectangle width="30" height="30" as="alternateBounds" />
          </mxGeometry>
        </mxCell>
        <mxCell id="Tu_fgQsAB8VPxuRS4HVX-24" value="aisle_id int" style="shape=partialRectangle;overflow=hidden;connectable=0;fillColor=none;top=0;left=0;bottom=0;right=0;align=left;spacingLeft=6;" parent="Tu_fgQsAB8VPxuRS4HVX-22" vertex="1">
          <mxGeometry x="30" width="220" height="30" as="geometry">
            <mxRectangle width="220" height="30" as="alternateBounds" />
          </mxGeometry>
        </mxCell>
        <mxCell id="Tu_fgQsAB8VPxuRS4HVX-19" style="shape=partialRectangle;collapsible=0;dropTarget=0;pointerEvents=0;fillColor=none;points=[[0,0.5],[1,0.5]];portConstraint=eastwest;top=0;left=0;right=0;bottom=0;" parent="C-vyLk0tnHw3VtMMgP7b-13" vertex="1">
          <mxGeometry y="120" width="250" height="30" as="geometry" />
        </mxCell>
        <mxCell id="Tu_fgQsAB8VPxuRS4HVX-20" style="shape=partialRectangle;overflow=hidden;connectable=0;fillColor=none;top=0;left=0;bottom=0;right=0;" parent="Tu_fgQsAB8VPxuRS4HVX-19" vertex="1">
          <mxGeometry width="30" height="30" as="geometry">
            <mxRectangle width="30" height="30" as="alternateBounds" />
          </mxGeometry>
        </mxCell>
        <mxCell id="Tu_fgQsAB8VPxuRS4HVX-21" value="department_id int" style="shape=partialRectangle;overflow=hidden;connectable=0;fillColor=none;top=0;left=0;bottom=0;right=0;align=left;spacingLeft=6;" parent="Tu_fgQsAB8VPxuRS4HVX-19" vertex="1">
          <mxGeometry x="30" width="220" height="30" as="geometry">
            <mxRectangle width="220" height="30" as="alternateBounds" />
          </mxGeometry>
        </mxCell>
        <mxCell id="C-vyLk0tnHw3VtMMgP7b-23" value="orders" style="shape=table;startSize=30;container=1;collapsible=1;childLayout=tableLayout;fixedRows=1;rowLines=0;fontStyle=1;align=center;resizeLast=1;" parent="1" vertex="1">
          <mxGeometry x="84" y="230" width="250" height="220" as="geometry" />
        </mxCell>
        <mxCell id="C-vyLk0tnHw3VtMMgP7b-24" value="" style="shape=partialRectangle;collapsible=0;dropTarget=0;pointerEvents=0;fillColor=none;points=[[0,0.5],[1,0.5]];portConstraint=eastwest;top=0;left=0;right=0;bottom=1;" parent="C-vyLk0tnHw3VtMMgP7b-23" vertex="1">
          <mxGeometry y="30" width="250" height="30" as="geometry" />
        </mxCell>
        <mxCell id="C-vyLk0tnHw3VtMMgP7b-25" value="PK" style="shape=partialRectangle;overflow=hidden;connectable=0;fillColor=none;top=0;left=0;bottom=0;right=0;fontStyle=1;" parent="C-vyLk0tnHw3VtMMgP7b-24" vertex="1">
          <mxGeometry width="30" height="30" as="geometry">
            <mxRectangle width="30" height="30" as="alternateBounds" />
          </mxGeometry>
        </mxCell>
        <mxCell id="C-vyLk0tnHw3VtMMgP7b-26" value="order_id int NOT NULL " style="shape=partialRectangle;overflow=hidden;connectable=0;fillColor=none;top=0;left=0;bottom=0;right=0;align=left;spacingLeft=6;fontStyle=5;" parent="C-vyLk0tnHw3VtMMgP7b-24" vertex="1">
          <mxGeometry x="30" width="220" height="30" as="geometry">
            <mxRectangle width="220" height="30" as="alternateBounds" />
          </mxGeometry>
        </mxCell>
        <mxCell id="C-vyLk0tnHw3VtMMgP7b-27" value="" style="shape=partialRectangle;collapsible=0;dropTarget=0;pointerEvents=0;fillColor=none;points=[[0,0.5],[1,0.5]];portConstraint=eastwest;top=0;left=0;right=0;bottom=0;" parent="C-vyLk0tnHw3VtMMgP7b-23" vertex="1">
          <mxGeometry y="60" width="250" height="30" as="geometry" />
        </mxCell>
        <mxCell id="C-vyLk0tnHw3VtMMgP7b-28" value="" style="shape=partialRectangle;overflow=hidden;connectable=0;fillColor=none;top=0;left=0;bottom=0;right=0;" parent="C-vyLk0tnHw3VtMMgP7b-27" vertex="1">
          <mxGeometry width="30" height="30" as="geometry">
            <mxRectangle width="30" height="30" as="alternateBounds" />
          </mxGeometry>
        </mxCell>
        <mxCell id="C-vyLk0tnHw3VtMMgP7b-29" value="user_id int NOT NULL" style="shape=partialRectangle;overflow=hidden;connectable=0;fillColor=none;top=0;left=0;bottom=0;right=0;align=left;spacingLeft=6;" parent="C-vyLk0tnHw3VtMMgP7b-27" vertex="1">
          <mxGeometry x="30" width="220" height="30" as="geometry">
            <mxRectangle width="220" height="30" as="alternateBounds" />
          </mxGeometry>
        </mxCell>
        <mxCell id="Tu_fgQsAB8VPxuRS4HVX-13" style="shape=partialRectangle;collapsible=0;dropTarget=0;pointerEvents=0;fillColor=none;points=[[0,0.5],[1,0.5]];portConstraint=eastwest;top=0;left=0;right=0;bottom=0;" parent="C-vyLk0tnHw3VtMMgP7b-23" vertex="1">
          <mxGeometry y="90" width="250" height="30" as="geometry" />
        </mxCell>
        <mxCell id="Tu_fgQsAB8VPxuRS4HVX-14" style="shape=partialRectangle;overflow=hidden;connectable=0;fillColor=none;top=0;left=0;bottom=0;right=0;" parent="Tu_fgQsAB8VPxuRS4HVX-13" vertex="1">
          <mxGeometry width="30" height="30" as="geometry">
            <mxRectangle width="30" height="30" as="alternateBounds" />
          </mxGeometry>
        </mxCell>
        <mxCell id="Tu_fgQsAB8VPxuRS4HVX-15" value="order_number int" style="shape=partialRectangle;overflow=hidden;connectable=0;fillColor=none;top=0;left=0;bottom=0;right=0;align=left;spacingLeft=6;" parent="Tu_fgQsAB8VPxuRS4HVX-13" vertex="1">
          <mxGeometry x="30" width="220" height="30" as="geometry">
            <mxRectangle width="220" height="30" as="alternateBounds" />
          </mxGeometry>
        </mxCell>
        <mxCell id="Tu_fgQsAB8VPxuRS4HVX-10" style="shape=partialRectangle;collapsible=0;dropTarget=0;pointerEvents=0;fillColor=none;points=[[0,0.5],[1,0.5]];portConstraint=eastwest;top=0;left=0;right=0;bottom=0;" parent="C-vyLk0tnHw3VtMMgP7b-23" vertex="1">
          <mxGeometry y="120" width="250" height="30" as="geometry" />
        </mxCell>
        <mxCell id="Tu_fgQsAB8VPxuRS4HVX-11" style="shape=partialRectangle;overflow=hidden;connectable=0;fillColor=none;top=0;left=0;bottom=0;right=0;" parent="Tu_fgQsAB8VPxuRS4HVX-10" vertex="1">
          <mxGeometry width="30" height="30" as="geometry">
            <mxRectangle width="30" height="30" as="alternateBounds" />
          </mxGeometry>
        </mxCell>
        <mxCell id="Tu_fgQsAB8VPxuRS4HVX-12" value="order_dow int" style="shape=partialRectangle;overflow=hidden;connectable=0;fillColor=none;top=0;left=0;bottom=0;right=0;align=left;spacingLeft=6;" parent="Tu_fgQsAB8VPxuRS4HVX-10" vertex="1">
          <mxGeometry x="30" width="220" height="30" as="geometry">
            <mxRectangle width="220" height="30" as="alternateBounds" />
          </mxGeometry>
        </mxCell>
        <mxCell id="Tu_fgQsAB8VPxuRS4HVX-7" style="shape=partialRectangle;collapsible=0;dropTarget=0;pointerEvents=0;fillColor=none;points=[[0,0.5],[1,0.5]];portConstraint=eastwest;top=0;left=0;right=0;bottom=0;" parent="C-vyLk0tnHw3VtMMgP7b-23" vertex="1">
          <mxGeometry y="150" width="250" height="30" as="geometry" />
        </mxCell>
        <mxCell id="Tu_fgQsAB8VPxuRS4HVX-8" style="shape=partialRectangle;overflow=hidden;connectable=0;fillColor=none;top=0;left=0;bottom=0;right=0;" parent="Tu_fgQsAB8VPxuRS4HVX-7" vertex="1">
          <mxGeometry width="30" height="30" as="geometry">
            <mxRectangle width="30" height="30" as="alternateBounds" />
          </mxGeometry>
        </mxCell>
        <mxCell id="Tu_fgQsAB8VPxuRS4HVX-9" value="order_hour_of_day int" style="shape=partialRectangle;overflow=hidden;connectable=0;fillColor=none;top=0;left=0;bottom=0;right=0;align=left;spacingLeft=6;" parent="Tu_fgQsAB8VPxuRS4HVX-7" vertex="1">
          <mxGeometry x="30" width="220" height="30" as="geometry">
            <mxRectangle width="220" height="30" as="alternateBounds" />
          </mxGeometry>
        </mxCell>
        <mxCell id="Tu_fgQsAB8VPxuRS4HVX-16" style="shape=partialRectangle;collapsible=0;dropTarget=0;pointerEvents=0;fillColor=none;points=[[0,0.5],[1,0.5]];portConstraint=eastwest;top=0;left=0;right=0;bottom=0;" parent="C-vyLk0tnHw3VtMMgP7b-23" vertex="1">
          <mxGeometry y="180" width="250" height="30" as="geometry" />
        </mxCell>
        <mxCell id="Tu_fgQsAB8VPxuRS4HVX-17" style="shape=partialRectangle;overflow=hidden;connectable=0;fillColor=none;top=0;left=0;bottom=0;right=0;" parent="Tu_fgQsAB8VPxuRS4HVX-16" vertex="1">
          <mxGeometry width="30" height="30" as="geometry">
            <mxRectangle width="30" height="30" as="alternateBounds" />
          </mxGeometry>
        </mxCell>
        <mxCell id="Tu_fgQsAB8VPxuRS4HVX-18" value="days_since_prior_order int" style="shape=partialRectangle;overflow=hidden;connectable=0;fillColor=none;top=0;left=0;bottom=0;right=0;align=left;spacingLeft=6;" parent="Tu_fgQsAB8VPxuRS4HVX-16" vertex="1">
          <mxGeometry x="30" width="220" height="30" as="geometry">
            <mxRectangle width="220" height="30" as="alternateBounds" />
          </mxGeometry>
        </mxCell>
        <mxCell id="Tu_fgQsAB8VPxuRS4HVX-25" style="edgeStyle=orthogonalEdgeStyle;rounded=0;orthogonalLoop=1;jettySize=auto;html=1;entryX=1;entryY=0.5;entryDx=0;entryDy=0;endArrow=ERoneToMany;endFill=0;strokeColor=default;startArrow=ERone;startFill=0;" parent="1" source="C-vyLk0tnHw3VtMMgP7b-14" target="C-vyLk0tnHw3VtMMgP7b-6" edge="1">
          <mxGeometry relative="1" as="geometry" />
        </mxCell>
        <mxCell id="Tu_fgQsAB8VPxuRS4HVX-26" value="aisle" style="shape=table;startSize=30;container=1;collapsible=1;childLayout=tableLayout;fixedRows=1;rowLines=0;fontStyle=1;align=center;resizeLast=1;html=1;" parent="1" vertex="1">
          <mxGeometry x="484" y="550" width="180" height="90" as="geometry" />
        </mxCell>
        <mxCell id="Tu_fgQsAB8VPxuRS4HVX-27" value="" style="shape=tableRow;horizontal=0;startSize=0;swimlaneHead=0;swimlaneBody=0;fillColor=none;collapsible=0;dropTarget=0;points=[[0,0.5],[1,0.5]];portConstraint=eastwest;top=0;left=0;right=0;bottom=1;" parent="Tu_fgQsAB8VPxuRS4HVX-26" vertex="1">
          <mxGeometry y="30" width="180" height="30" as="geometry" />
        </mxCell>
        <mxCell id="Tu_fgQsAB8VPxuRS4HVX-28" value="PK" style="shape=partialRectangle;connectable=0;fillColor=none;top=0;left=0;bottom=0;right=0;fontStyle=1;overflow=hidden;whiteSpace=wrap;html=1;" parent="Tu_fgQsAB8VPxuRS4HVX-27" vertex="1">
          <mxGeometry width="30" height="30" as="geometry">
            <mxRectangle width="30" height="30" as="alternateBounds" />
          </mxGeometry>
        </mxCell>
        <mxCell id="Tu_fgQsAB8VPxuRS4HVX-29" value="aisle_id int" style="shape=partialRectangle;connectable=0;fillColor=none;top=0;left=0;bottom=0;right=0;align=left;spacingLeft=6;fontStyle=5;overflow=hidden;whiteSpace=wrap;html=1;" parent="Tu_fgQsAB8VPxuRS4HVX-27" vertex="1">
          <mxGeometry x="30" width="150" height="30" as="geometry">
            <mxRectangle width="150" height="30" as="alternateBounds" />
          </mxGeometry>
        </mxCell>
        <mxCell id="Tu_fgQsAB8VPxuRS4HVX-30" value="" style="shape=tableRow;horizontal=0;startSize=0;swimlaneHead=0;swimlaneBody=0;fillColor=none;collapsible=0;dropTarget=0;points=[[0,0.5],[1,0.5]];portConstraint=eastwest;top=0;left=0;right=0;bottom=0;" parent="Tu_fgQsAB8VPxuRS4HVX-26" vertex="1">
          <mxGeometry y="60" width="180" height="30" as="geometry" />
        </mxCell>
        <mxCell id="Tu_fgQsAB8VPxuRS4HVX-31" value="" style="shape=partialRectangle;connectable=0;fillColor=none;top=0;left=0;bottom=0;right=0;editable=1;overflow=hidden;whiteSpace=wrap;html=1;" parent="Tu_fgQsAB8VPxuRS4HVX-30" vertex="1">
          <mxGeometry width="30" height="30" as="geometry">
            <mxRectangle width="30" height="30" as="alternateBounds" />
          </mxGeometry>
        </mxCell>
        <mxCell id="Tu_fgQsAB8VPxuRS4HVX-32" value="aisle varchar(55)" style="shape=partialRectangle;connectable=0;fillColor=none;top=0;left=0;bottom=0;right=0;align=left;spacingLeft=6;overflow=hidden;whiteSpace=wrap;html=1;" parent="Tu_fgQsAB8VPxuRS4HVX-30" vertex="1">
          <mxGeometry x="30" width="150" height="30" as="geometry">
            <mxRectangle width="150" height="30" as="alternateBounds" />
          </mxGeometry>
        </mxCell>
        <mxCell id="Tu_fgQsAB8VPxuRS4HVX-39" value="department" style="shape=table;startSize=30;container=1;collapsible=1;childLayout=tableLayout;fixedRows=1;rowLines=0;fontStyle=1;align=center;resizeLast=1;html=1;" parent="1" vertex="1">
          <mxGeometry x="884" y="550" width="180" height="90" as="geometry" />
        </mxCell>
        <mxCell id="Tu_fgQsAB8VPxuRS4HVX-40" value="" style="shape=tableRow;horizontal=0;startSize=0;swimlaneHead=0;swimlaneBody=0;fillColor=none;collapsible=0;dropTarget=0;points=[[0,0.5],[1,0.5]];portConstraint=eastwest;top=0;left=0;right=0;bottom=1;" parent="Tu_fgQsAB8VPxuRS4HVX-39" vertex="1">
          <mxGeometry y="30" width="180" height="30" as="geometry" />
        </mxCell>
        <mxCell id="Tu_fgQsAB8VPxuRS4HVX-41" value="PK" style="shape=partialRectangle;connectable=0;fillColor=none;top=0;left=0;bottom=0;right=0;fontStyle=1;overflow=hidden;whiteSpace=wrap;html=1;" parent="Tu_fgQsAB8VPxuRS4HVX-40" vertex="1">
          <mxGeometry width="30" height="30" as="geometry">
            <mxRectangle width="30" height="30" as="alternateBounds" />
          </mxGeometry>
        </mxCell>
        <mxCell id="Tu_fgQsAB8VPxuRS4HVX-42" value="department_id int" style="shape=partialRectangle;connectable=0;fillColor=none;top=0;left=0;bottom=0;right=0;align=left;spacingLeft=6;fontStyle=5;overflow=hidden;whiteSpace=wrap;html=1;" parent="Tu_fgQsAB8VPxuRS4HVX-40" vertex="1">
          <mxGeometry x="30" width="150" height="30" as="geometry">
            <mxRectangle width="150" height="30" as="alternateBounds" />
          </mxGeometry>
        </mxCell>
        <mxCell id="Tu_fgQsAB8VPxuRS4HVX-43" value="" style="shape=tableRow;horizontal=0;startSize=0;swimlaneHead=0;swimlaneBody=0;fillColor=none;collapsible=0;dropTarget=0;points=[[0,0.5],[1,0.5]];portConstraint=eastwest;top=0;left=0;right=0;bottom=0;" parent="Tu_fgQsAB8VPxuRS4HVX-39" vertex="1">
          <mxGeometry y="60" width="180" height="30" as="geometry" />
        </mxCell>
        <mxCell id="Tu_fgQsAB8VPxuRS4HVX-44" value="" style="shape=partialRectangle;connectable=0;fillColor=none;top=0;left=0;bottom=0;right=0;editable=1;overflow=hidden;whiteSpace=wrap;html=1;" parent="Tu_fgQsAB8VPxuRS4HVX-43" vertex="1">
          <mxGeometry width="30" height="30" as="geometry">
            <mxRectangle width="30" height="30" as="alternateBounds" />
          </mxGeometry>
        </mxCell>
        <mxCell id="Tu_fgQsAB8VPxuRS4HVX-45" value="department varchar(255)" style="shape=partialRectangle;connectable=0;fillColor=none;top=0;left=0;bottom=0;right=0;align=left;spacingLeft=6;overflow=hidden;whiteSpace=wrap;html=1;" parent="Tu_fgQsAB8VPxuRS4HVX-43" vertex="1">
          <mxGeometry x="30" width="150" height="30" as="geometry">
            <mxRectangle width="150" height="30" as="alternateBounds" />
          </mxGeometry>
        </mxCell>
        <mxCell id="Tu_fgQsAB8VPxuRS4HVX-52" style="edgeStyle=orthogonalEdgeStyle;rounded=0;orthogonalLoop=1;jettySize=auto;html=1;entryX=0;entryY=0.5;entryDx=0;entryDy=0;startArrow=ERone;startFill=0;endArrow=ERzeroToMany;endFill=0;" parent="1" source="Tu_fgQsAB8VPxuRS4HVX-27" target="Tu_fgQsAB8VPxuRS4HVX-22" edge="1">
          <mxGeometry relative="1" as="geometry" />
        </mxCell>
        <mxCell id="Tu_fgQsAB8VPxuRS4HVX-53" style="edgeStyle=orthogonalEdgeStyle;rounded=0;orthogonalLoop=1;jettySize=auto;html=1;entryX=0;entryY=0.5;entryDx=0;entryDy=0;startArrow=ERone;startFill=0;endArrow=ERzeroToMany;endFill=0;" parent="1" source="Tu_fgQsAB8VPxuRS4HVX-40" target="Tu_fgQsAB8VPxuRS4HVX-19" edge="1">
          <mxGeometry relative="1" as="geometry" />
        </mxCell>
        <mxCell id="Tu_fgQsAB8VPxuRS4HVX-54" value="Instacart Order Management System &lt;br&gt;Data Model" style="text;strokeColor=none;fillColor=none;html=1;fontSize=24;fontStyle=1;verticalAlign=middle;align=center;" parent="1" vertex="1">
          <mxGeometry x="535" y="40" width="100" height="40" as="geometry" />
        </mxCell>
        <mxCell id="aIDFkd793hhMjL8SlbaR-1" value="" style="shape=image;verticalLabelPosition=bottom;labelBackgroundColor=default;verticalAlign=top;aspect=fixed;imageAspect=0;image=data:image/png,iVBORw0KGgoAAAANSUhEUgAAAjIAAABaCAMAAACVKkx1AAABAlBMVEX///8APSkKrQr/cAkAOyYAOCIAMxoQQzEAJQAAMBcANB3/bwAArACaqKKHmZIAIQBxh34jTz//dBUALREAIwBIZ1u0vroAKw0ApwDU7tQbsRvO1tMAKAIAIAA+XVBkfHJTcGTw8/KYpJ/AysaotbDa393/ZgB8j4fn7OqBlIyOnpesuLNdd2wvVUbFzstLaVz2/PbH6MdRvVEAAACIz4g6tzpcwFzc8dzr9+ud150AGQAbSTi95L3/y7P/1sP/iET/wKL/4NF5ynmw37BYv1iY1ZhHukcqsyoAEgBvxm+AzIAACgC14LX/9fD/7+f/qoH/l2L/tpP/eyj/nmv/gzn/kFM7wVpQAAAUx0lEQVR4nO2de5ubNhaHYYIwML4W2zg1vo3t+jLGbrtpk8ZN03u2u9ukze5+/6+yYHORdI4EwvbM9Fn//ppnDEKIl6Mj6RyhaZfVdDGs6Pvxun/h61z1BPS8V2X1qXoZd67nGLquE9PaT89fxauelk5HZtJyI16OMgbNS9Tyqiek570bRsrITAyi0/JGF6nnVU9GJyMTODora3aRil71VHQqMve+zsubXKaqVz0NnYpMywDIuLXLVPWqp6ETkZm3ATE6CS5U16uehE5EputCZPT2hep61ZPQicjc2Qgy1vJClb3qKehEZNbmFZn/N52ITO2vYWXmwTBRcP/YlXkqaqZtMhyrnHeqL+NhyCgV8RCaWiSRdx3PxRo6SZs4LZXzTkRmiY2YOkpFPITuMy/dviITK5sfMR4SGW1IADLe0zP9lMt1RSZR1kGIkXn54qtqr/rux+fU/+TI/PT1Ta938/M3nwuvuwVmxjBOv5tza0OuyPBaWrnIfP51r1qNoKj2fn2V/leGzLfVwxnhCb1vhFfe8A7w4AnGPxjGFRle1JSaAJlXB15iLnqpoZEg86KXndH7WnjpgGVmsD7jbZ1J8+yFuiKTaOTkIPM5RUzEzMv4/2JkXjC/9H4TXnvTzsy+Yz09R0bT6uYVGV4Taj0ZR+a3KktGNf6/EJlvuR96XwivPg3abjRgM7326MlNyUSiZwKuyBxFz9ujyLziALip/nz8QYQMPOEryfXns8V4t6l3n2bYQ92+IsNrQr9GKDK/VDkCbno/HX4QIfMrPOElUu5fQX3Kk7kiE4uZHEGR+RkQcNM7DJsEyHzDG5mUsb+c5q5xRYbXmBmzoMh8CgiIexocmZeQmJvqi/PXfD6d1ReLxXq2VfGB5tv7WnTaaj3r9vP6wq7HBoHZxeNMmeuUctIm/e5svTqhhGVahdp9uSocSunWVotVbZq01bzFriajyEACQrPxiyZC5h00SjfVH9HqrFd1Vqtu8tM999OKHU11N6bl2abjmLbrtfVmkfmcSXcR+JbnRqc5Znii3zbGtbnw+PmY6ZVCkTFXKRyh6Yq9jmeZHbU0rf7djrSjEsy4hDbZKZWwrQ89tgrusL4VHDxdrBgtstbsDhtRM5u293p1+MfsNTdlb1TWbKMsNNTKHL0TFJkXiJERWZlK2CaM/FXyU9Njf2GSD+7sY/JTWm3HM+9yGvG+Ew3NOAYMYluVNWZs5rXAgusZhKvUBp643VieCc4kpu81Cz7zbdO1bMIFuYY19d2CJfRHPloFzx+h1NQs9raspC2XgZ8W4xwzhlYgYsXgnuHfw6O+RMzGAQ8MGf5/MWC4LwOCf8168lOTSz5wshynqeHCoGHDdbroNY6q2y4EID7TtposNNNx4Pm26Hi6UiCJprv3hec5ViB6z+nnV/H5vAuqhH1+1zgNLEkBLaSV+CgUO0Zm7lH3Ej+AOhbkxCiKq4QjpgMFP6LIVPGD8RFTKWRWAwhMJMNC3vm4TXwbPycpnJ12rlnSo6nzOGT6e096JrE6OT5FzUNeB/omXSKf75xjxpEuwA9AVyxAZsncjBIymD8bYfCc/yFE5jeUGNESdxlkRliUTXw2vtyxDMSnJPICytCgsV+YOGRW7VzLRHyZLdxWsHBoVoY/lGBXK1CFNm+pBMi0mKKUkMF7ppvqzRc8Mu/4/yR0/Qu/wRLINGWPHw332Yq7CkrEzF6+ksh08p+3Ll1HawrsJ1/VgbB32sDMMEQWl8iMI3PH3o4aMq96ODNgbIQ6yuGBXwruUB2ZGj+I4Y6CEVrdYs9BN7yUmVLITFpCD4KVVQd1PGi5L3pZ3RIkIg8LluCxzKDITDj61JDRvhAwgxMC0RIQo44MlvrENgY/2bYd5N1iIoMkfVMpZIoSE7YpaiT6XhFjGMtFgxc7uY8zkc/6bhgya+6fisiImCmk3jthkJUyMkFus3Lh5suinmx0ieEJyIwLP66wUZG5oG27eEVDmUNYRLNQx3hUgx6uo8g4XH1UkdFefop7KfkmRhL5oIxMN7+rdthhUz5jlPxZaWRmhZyIWEhKaL+hREz4WMd8EdM8C0zL0HOQmfI+ozIymvaPUoamWv1WTIwyMpUC7cq8wrP8sRIlwy6LzETlcYWmkB82zX1FYsIumHeJ5PMIvOjkdwyZEd/PlkBGe65uaEITI478VUdmWuRVdhbUBfg51EgGcUzTwX5Jlh3VkdkUdmSOVdhzDaGrGMNYbXZecFXYeT5WwZEjAzq5Msho2i+KhiYchsuAUUamc2zY8JmHEr5TblY+kinl+E6nuaqvNhVkjjRuR2Vkcr1yXj77uBWJO8ogdBGKdo7J5UCQ6YO3sxwy2suvFAxNtfcPOTCqyCyjwY9h+2TcXCxGgSUYYnjZoloHHGFtUr9v3oSu8fFRKiMDrHgo4vq+53q+ZyJwO8wotyufORDJXlFl1JE6E/tYBR+rApUxhiADm6AkMlEsTFFD03v3XMuTGjLRbdhGLR0STTvocMhMeyb45nnM2z0Hk/PHXq32z0YkZAxjNxi9Hh+vAwfyhjWcHZyqSX9lIubMpOshWCMwTM9vt9uWJ1rualOjQ8Tq+sFsPjlUYW0gQA3S+W4EmSwTxzCinEhDjIzBtknjb/xTfvVlIWiqh+iI8yIzJHqb9fmmmMuXBXAAr9/nYiT6/OvNOhkGX7ogxOoedPyE0GyO4OjXp5x03AtxrNZ6Gj7yybI/G/vou03Zqi3ogg2X9rEXsIvOrDGCzHGgEZp0zwg6412gu68FyBTJlvwXvvLImpivCkVuKiBDRktPb/NhMUvMi/VEU3IETGaAHsWi17SLIjMGMRUGuzQOOy43m86bYN2S0d7QI79JHV1sbKeXWfBXMFx2ggpyaabTeQCZmha5MsRq3WVRaMtjfUohc8iDyzEx4mw3RgrI6MSDY1M2yyhR+gbzZcAn3s9S9I+y6CmuosgAI2JxcS0TOP7IxnUwAiX8WecjY5ZgK8qoPulTB9MPvEGFN0PSGSweGWc9DStst7BQjXLIaNoXMkNT7X35Kr+Ig1SQAbN08S1Aq55a3A33Zrpgpn6yD1gx4SQFkZnzowsCKgrMDBmnvyFTRw4yt6t1EJeoEv8GdkSABhU+63RCEfi6jgvWocTFFE3j/1FoaKpVwbI1IjVk2tiiP3yBswfLD5hMxWTMgsjM+Cp44PUEDyV7XtAREm0Y2IJ9U2LOgNfmgqgasM1clv+OjRBtwbbd5ZERTexVe19LJ++4RlBBhnoxacEDUzJ2fJiq4t6NBZFZNFxW/wSHQGTSCXs4EWCYeBj7vAEebHKrtQFfBfB6TQGa6QQWggyYbEx0AjJs2nVmYnIm71gpIePiwUngBdPNZL5ixD8NVxB3IFBBZLZdXuCQFeQ6/gWZghNGYS2A15PYoz5fAxi6B7nwxT/Rk1usTkJGe/mOD7Hq4YkEQikhI9gSDbZ56lrCMryNOKEAqqj7my8dDOwSZOAENXRD0ls9ZWttuMlyumEYRIZZtWR0GjL8xF7v0/zJu5zbkCHjCAoBr146XYG8PcSqNGvd7bxQS58NmREcFCXIgNGx+AVHRvNgbCYUMvkjQcYUmuNTkdFe/drLTIx6epsKMsKqBWAKN0EGzm9F5Ti26/mWrbfGzfW9NPvtTMj0A8S9TJABTWCIXg0N2ykZDgJRzXdILI0EGTG2JyOjaT/Fhqbg5B0rpXkZkb0G26elyEiX6gyDRPA0KqOZKPz6DMhMtusWOguXIAOodgRDlUjLv/mcXi/ERydV6N8FaBC5BBnxvqhnQOY4sVd48o6VEjKijRfBkCNrdH7IhMlwXGtfQ43Nacgsp+uNjq9K6ikycCpS4OXHhwNJk1yW07tRxRetUUmQ8YVFngOZwx5nvxadvGN1aWTQbWIRGXa7ibR9aWTm94thlACMBuXEd3o8EvadvoqDLqlCd9UhYRXEQSISZCRbFp4HGe3z4pN3rC6NTKEwvvikBpznK4XMvLbzfZjKyytGBk7kneEjDvPaxvVdUwLsQRJkKsKyz4RMaV0cmWnh/ILQ5RvyvZM6MvO6bhXJzE2RgX2CK79CrpbrfcEqXJFJRTuQKlH3js4xo4rMdNgQeC5QMTLgOw7iGZFC6ncGhWOAr8ikYsYc2OhSJMLNkqsh0w8KpWUmd3o86bzIzIfyhGxWj4jM75HK3OFDIKONFKIkTTYLUQmZ5kAp5FuIDBFfIk8rtSo8CjLv33x4+8lnB91+/OPP71TBeQhktBke0oaKyQhTQUaeHUvgsrwIGcn4NkeTQGZQCWyEh0fmhw8hLbe3t88OCv8IwXn7vRI1D4KMNmlaRft3dr6wODJLmcNpWJsaeGBC99cquTPpRJekKRhe5x5eKTn1gZB58zHk5RmvEJs/fih+mw+DTNicd3u4LxQqJnGuMDITIiaGeJWuNoOrOMcz4SDbU9ohLdNeVgUyQ1b8HxaZN7cILwk1bwtD81DIaIe5isPuc45DAAloBTQFZJCAuUNrEtuzNtFyjRAZOJUnXTVa9oHiX0aCjpGYXmMXTSg/LjI/fBQCc4Tm30VK0R4UmUiTfvduMRq2dNfyQ3qw15JpgKLIoKnixLac3V0cnydEBgSBIlGglMYNj1OcAgI/OqMfEgTszjquwqMi80EKTKTPbr8rUM6DI5NpMu93150B4hfTrkRRZJA5ZmIF9F6fQmQmcEnDltQb1CiJnkO2KyBWi67CIyLz+38+ywHmYGj+zC1Ie0RkjprUoXmgl3gKIjOFw3h3yK4UCZHR9gA3T7wuCRcxY5uEZPiaLdYpuhgyopDPVO9v80xMbGj+yCtJe3RkQnsOngEdKQKRQePNkSwlPiRBjAwS4yyOUIbxWDHEMIfR5vu3iyGTN5H0PrdTSpn5b05R2hNABrYAHZoPkMFLBosEMLAdiXuLf0ESDISxv1gg59GUgH4JcgfDs86DjN4QHntQURtT0M48PjJL/inQe87DbDHMACyBpYLxC3DGLkEG+SZrtgMbJ2S3AO/4Cxyqg7A6aOjOhExOtMYnxYkJmfkgLUu7MDLbzphTB3kUfGPTyMAg7zZSQh+mOIBj4MNOj0EcVzTzLbQTkK7YniHUgrNhUuaZkJF/2OG/KsSEzLyRFaZdGJn5gEueJW1kloxvLbpjgq4p5v8CJwFJl4JjqhQZNO9sjNwn9LvS2gJqkcVN+LngUsgg2QiyIdP3BcZKLDM5yweX7ZhAEzswUBZ0TLRFxz7KDIP3YBoiaEMkczxFBg1QNgNwnRm2vOofrR6YEIQ+KbKhSSlkEN/LFS/Wvlcl5tntW2FhB10WGZiH6IMHwW9VyvTMyOZShg56bolfmQjmrFGdF7afkU6sOtMHzjvYdGFyp3AOGaxUIcasFDJw4BUWJOyaFLulg5mRT+ldFhnYSsB9BUaGcQKg0xrtB7/goIGNyPue8Co0MkjebCTbG3Vjwuc1QRxMsiIG3SnewZggsV+lkMG22tC9IZ7E8oOykQnNzDPhtSNdFhnk7hzW4PdBMDVzFTza3PGtYDMabTrxnBt8XvzsVovAZUvKRRbtlOe4VsNo7c2B6Kst6VYY0P3ls6E6DqxCKWQ0NNGHeI3KeDQajfeM5/5W3cjkecAXHmRjs+heZiT6I7hxGtMvwyeRlEKc8BHEyCBHOTuqlEngkBG/bwmNzFISoGzI1lCzrTCQ3SPoZzfp2GQMMtTLIQO7+/icaNNL4oypQ8sYmdDMfBRf/OLI3GNWwvHtXbQ949D3kLeb9QHgkIlWknGE2HynkkzHLdc+CUsFDg89EK8p7U6cXT9bdcdeDpL0TZOa7YQ+GrCG5ZCR7z3JzGJ+KGNkQjMji4S49FQenFg5FhVtAou+LNzXcoBzzChBBvNfDc/uLFaL0d4yD0MosAcNM3eDDM3yRUcqYzthGa43bIZVaEUfozJc6HOVQ0Zoeo+VGlOHljIyoZmRBUJcPPVNdXfUAfcFBOlmugkyggQ74pjx7sR2LQeZifzLX7joJFi4TS9XBWdxLmSEPdPxiuPswO9KIvPsM8nVL75gIIh9EsldcWWjA+D06KTzyQsTDX0OOTJaX3Wj55BuZpCSl+Nnzc+GDDalmIpGpmS/JO+ZLo7MRGljfwLm4GSeaYYMtk0zXZ8Nsjkat6igkqN3UIOdP8v5WEPkDJ8LGWk3SiPzsTQy34svfvllyb7CozCQqd215FFkCffyfiWaPclDRpuqfVynwc+4ys1M9L2DsyEj82YoZH4v2y89u5UsaD/ASva04EffokQAbEl2KO6aMmSkPpMZVScXGa0v/MQuUtUBiI+QfqqMRIP+syGjzcTdKIVMuSH2AZlPxNd+iOCHbcEEQuLgi/h7ITPUth7I/uGJjss9+chok2HRsbYJVy3C3lFy9mEp6nzIaCvhJ2soZN6URkbm/z5IvMxyXyTHFibxx5pge1AdRO8E0xG6M4PD8nkBZKJ9NYt466SBxwOJP+17tElnREar44scDDJ/noDMe+GVHyjEqt7OexSmL0mdHQncDGbzoDH+wJIupBAy2nLTyKsp8QNRolNT0D3Gfs85kdG6gu+/U8iUHjBJh0wPFZW3HLUlWzIYtrWQpihOK6h/y+43tW4gHSCx4qFwMWQ0bb5pSwZ5hmMF4s0XtRnyianQKMURQGdFRpts0PeQQubfUSptOcmQIQYrO0PG5H5Cvmd8VMfhjjQRw72sG76JOTXEtCp3uTmt9y0LMselAsx3fCMSq5OMwWYeV0nhNjLLu30bzewkpm835UGTy82AW2gNjVJyytTnqpBuflRzuV9IPjIR3Q3osdPI3H5SVpKcpqDCyciQMbif9J2gkJ3OF4JvOdhfDz3ftR1y5JQQx3R9b7guttHYvN7yPerk8NwB/8LPm26y2ZlBHNfaZRvT3xO+krJr1XbRtmlcTYM69hkK/tRFCJaTVYGKSpg6XBWy3cX5ylVyE00Omsx20W5ZTlpN2xvIEvf+kpp3183xcK8beiXYjdZdpX3pJtvaYjNshSfvO5v6PXrudr1pue2GX+ksuiXz8Y9aTmuL8eFilWA8ytltllG/tgnMsAr6sHkv3XzxLJrfr0e7oGIYleF4UduedM9XXXXVVQX1P8kD+kONu8Y/AAAAAElFTkSuQmCC;" parent="1" vertex="1">
          <mxGeometry x="50" y="40" width="249.78" height="40" as="geometry" />
        </mxCell>
        <mxCell id="aIDFkd793hhMjL8SlbaR-2" value="&lt;i&gt;&lt;font style=&quot;font-size: 24px;&quot; face=&quot;Verdana&quot; data-font-src=&quot;https://fonts.googleapis.com/css?family=Permanent+Marker&quot;&gt;Sumaximize™️&lt;/font&gt;&lt;/i&gt;" style="text;strokeColor=none;fillColor=none;html=1;fontSize=24;fontStyle=1;verticalAlign=middle;align=center;" parent="1" vertex="1">
          <mxGeometry x="1000" y="40" width="100" height="40" as="geometry" />
        </mxCell>
      </root>
    </mxGraphModel>
  </diagram>
  <diagram id="zXEMaoekxCL-Vu7NhEqP" name="Problem Statement">
    <mxGraphModel dx="720" dy="457" grid="1" gridSize="10" guides="1" tooltips="1" connect="1" arrows="1" fold="1" page="1" pageScale="1" pageWidth="413" pageHeight="291" math="0" shadow="0">
      <root>
        <mxCell id="0" />
        <mxCell id="1" parent="0" />
        <mxCell id="uBDGktFILzNGsmd_UJsv-1" value="" style="shape=image;verticalLabelPosition=bottom;labelBackgroundColor=default;verticalAlign=top;aspect=fixed;imageAspect=0;image=data:image/png,iVBORw0KGgoAAAANSUhEUgAAAjIAAABaCAMAAACVKkx1AAABAlBMVEX///8APSkKrQr/cAkAOyYAOCIAMxoQQzEAJQAAMBcANB3/bwAArACaqKKHmZIAIQBxh34jTz//dBUALREAIwBIZ1u0vroAKw0ApwDU7tQbsRvO1tMAKAIAIAA+XVBkfHJTcGTw8/KYpJ/AysaotbDa393/ZgB8j4fn7OqBlIyOnpesuLNdd2wvVUbFzstLaVz2/PbH6MdRvVEAAACIz4g6tzpcwFzc8dzr9+ud150AGQAbSTi95L3/y7P/1sP/iET/wKL/4NF5ynmw37BYv1iY1ZhHukcqsyoAEgBvxm+AzIAACgC14LX/9fD/7+f/qoH/l2L/tpP/eyj/nmv/gzn/kFM7wVpQAAAUx0lEQVR4nO2de5ubNhaHYYIwML4W2zg1vo3t+jLGbrtpk8ZN03u2u9ukze5+/6+yYHORdI4EwvbM9Fn//ppnDEKIl6Mj6RyhaZfVdDGs6Pvxun/h61z1BPS8V2X1qXoZd67nGLquE9PaT89fxauelk5HZtJyI16OMgbNS9Tyqiek570bRsrITAyi0/JGF6nnVU9GJyMTODora3aRil71VHQqMve+zsubXKaqVz0NnYpMywDIuLXLVPWqp6ETkZm3ATE6CS5U16uehE5EputCZPT2hep61ZPQicjc2Qgy1vJClb3qKehEZNbmFZn/N52ITO2vYWXmwTBRcP/YlXkqaqZtMhyrnHeqL+NhyCgV8RCaWiSRdx3PxRo6SZs4LZXzTkRmiY2YOkpFPITuMy/dviITK5sfMR4SGW1IADLe0zP9lMt1RSZR1kGIkXn54qtqr/rux+fU/+TI/PT1Ta938/M3nwuvuwVmxjBOv5tza0OuyPBaWrnIfP51r1qNoKj2fn2V/leGzLfVwxnhCb1vhFfe8A7w4AnGPxjGFRle1JSaAJlXB15iLnqpoZEg86KXndH7WnjpgGVmsD7jbZ1J8+yFuiKTaOTkIPM5RUzEzMv4/2JkXjC/9H4TXnvTzsy+Yz09R0bT6uYVGV4Taj0ZR+a3KktGNf6/EJlvuR96XwivPg3abjRgM7326MlNyUSiZwKuyBxFz9ujyLziALip/nz8QYQMPOEryfXns8V4t6l3n2bYQ92+IsNrQr9GKDK/VDkCbno/HX4QIfMrPOElUu5fQX3Kk7kiE4uZHEGR+RkQcNM7DJsEyHzDG5mUsb+c5q5xRYbXmBmzoMh8CgiIexocmZeQmJvqi/PXfD6d1ReLxXq2VfGB5tv7WnTaaj3r9vP6wq7HBoHZxeNMmeuUctIm/e5svTqhhGVahdp9uSocSunWVotVbZq01bzFriajyEACQrPxiyZC5h00SjfVH9HqrFd1Vqtu8tM999OKHU11N6bl2abjmLbrtfVmkfmcSXcR+JbnRqc5Znii3zbGtbnw+PmY6ZVCkTFXKRyh6Yq9jmeZHbU0rf7djrSjEsy4hDbZKZWwrQ89tgrusL4VHDxdrBgtstbsDhtRM5u293p1+MfsNTdlb1TWbKMsNNTKHL0TFJkXiJERWZlK2CaM/FXyU9Njf2GSD+7sY/JTWm3HM+9yGvG+Ew3NOAYMYluVNWZs5rXAgusZhKvUBp643VieCc4kpu81Cz7zbdO1bMIFuYY19d2CJfRHPloFzx+h1NQs9raspC2XgZ8W4xwzhlYgYsXgnuHfw6O+RMzGAQ8MGf5/MWC4LwOCf8168lOTSz5wshynqeHCoGHDdbroNY6q2y4EID7TtposNNNx4Pm26Hi6UiCJprv3hec5ViB6z+nnV/H5vAuqhH1+1zgNLEkBLaSV+CgUO0Zm7lH3Ej+AOhbkxCiKq4QjpgMFP6LIVPGD8RFTKWRWAwhMJMNC3vm4TXwbPycpnJ12rlnSo6nzOGT6e096JrE6OT5FzUNeB/omXSKf75xjxpEuwA9AVyxAZsncjBIymD8bYfCc/yFE5jeUGNESdxlkRliUTXw2vtyxDMSnJPICytCgsV+YOGRW7VzLRHyZLdxWsHBoVoY/lGBXK1CFNm+pBMi0mKKUkMF7ppvqzRc8Mu/4/yR0/Qu/wRLINGWPHw332Yq7CkrEzF6+ksh08p+3Ll1HawrsJ1/VgbB32sDMMEQWl8iMI3PH3o4aMq96ODNgbIQ6yuGBXwruUB2ZGj+I4Y6CEVrdYs9BN7yUmVLITFpCD4KVVQd1PGi5L3pZ3RIkIg8LluCxzKDITDj61JDRvhAwgxMC0RIQo44MlvrENgY/2bYd5N1iIoMkfVMpZIoSE7YpaiT6XhFjGMtFgxc7uY8zkc/6bhgya+6fisiImCmk3jthkJUyMkFus3Lh5suinmx0ieEJyIwLP66wUZG5oG27eEVDmUNYRLNQx3hUgx6uo8g4XH1UkdFefop7KfkmRhL5oIxMN7+rdthhUz5jlPxZaWRmhZyIWEhKaL+hREz4WMd8EdM8C0zL0HOQmfI+ozIymvaPUoamWv1WTIwyMpUC7cq8wrP8sRIlwy6LzETlcYWmkB82zX1FYsIumHeJ5PMIvOjkdwyZEd/PlkBGe65uaEITI478VUdmWuRVdhbUBfg51EgGcUzTwX5Jlh3VkdkUdmSOVdhzDaGrGMNYbXZecFXYeT5WwZEjAzq5Msho2i+KhiYchsuAUUamc2zY8JmHEr5TblY+kinl+E6nuaqvNhVkjjRuR2Vkcr1yXj77uBWJO8ogdBGKdo7J5UCQ6YO3sxwy2suvFAxNtfcPOTCqyCyjwY9h+2TcXCxGgSUYYnjZoloHHGFtUr9v3oSu8fFRKiMDrHgo4vq+53q+ZyJwO8wotyufORDJXlFl1JE6E/tYBR+rApUxhiADm6AkMlEsTFFD03v3XMuTGjLRbdhGLR0STTvocMhMeyb45nnM2z0Hk/PHXq32z0YkZAxjNxi9Hh+vAwfyhjWcHZyqSX9lIubMpOshWCMwTM9vt9uWJ1rualOjQ8Tq+sFsPjlUYW0gQA3S+W4EmSwTxzCinEhDjIzBtknjb/xTfvVlIWiqh+iI8yIzJHqb9fmmmMuXBXAAr9/nYiT6/OvNOhkGX7ogxOoedPyE0GyO4OjXp5x03AtxrNZ6Gj7yybI/G/vou03Zqi3ogg2X9rEXsIvOrDGCzHGgEZp0zwg6412gu68FyBTJlvwXvvLImpivCkVuKiBDRktPb/NhMUvMi/VEU3IETGaAHsWi17SLIjMGMRUGuzQOOy43m86bYN2S0d7QI79JHV1sbKeXWfBXMFx2ggpyaabTeQCZmha5MsRq3WVRaMtjfUohc8iDyzEx4mw3RgrI6MSDY1M2yyhR+gbzZcAn3s9S9I+y6CmuosgAI2JxcS0TOP7IxnUwAiX8WecjY5ZgK8qoPulTB9MPvEGFN0PSGSweGWc9DStst7BQjXLIaNoXMkNT7X35Kr+Ig1SQAbN08S1Aq55a3A33Zrpgpn6yD1gx4SQFkZnzowsCKgrMDBmnvyFTRw4yt6t1EJeoEv8GdkSABhU+63RCEfi6jgvWocTFFE3j/1FoaKpVwbI1IjVk2tiiP3yBswfLD5hMxWTMgsjM+Cp44PUEDyV7XtAREm0Y2IJ9U2LOgNfmgqgasM1clv+OjRBtwbbd5ZERTexVe19LJ++4RlBBhnoxacEDUzJ2fJiq4t6NBZFZNFxW/wSHQGTSCXs4EWCYeBj7vAEebHKrtQFfBfB6TQGa6QQWggyYbEx0AjJs2nVmYnIm71gpIePiwUngBdPNZL5ixD8NVxB3IFBBZLZdXuCQFeQ6/gWZghNGYS2A15PYoz5fAxi6B7nwxT/Rk1usTkJGe/mOD7Hq4YkEQikhI9gSDbZ56lrCMryNOKEAqqj7my8dDOwSZOAENXRD0ls9ZWttuMlyumEYRIZZtWR0GjL8xF7v0/zJu5zbkCHjCAoBr146XYG8PcSqNGvd7bxQS58NmREcFCXIgNGx+AVHRvNgbCYUMvkjQcYUmuNTkdFe/drLTIx6epsKMsKqBWAKN0EGzm9F5Ti26/mWrbfGzfW9NPvtTMj0A8S9TJABTWCIXg0N2ykZDgJRzXdILI0EGTG2JyOjaT/Fhqbg5B0rpXkZkb0G26elyEiX6gyDRPA0KqOZKPz6DMhMtusWOguXIAOodgRDlUjLv/mcXi/ERydV6N8FaBC5BBnxvqhnQOY4sVd48o6VEjKijRfBkCNrdH7IhMlwXGtfQ43Nacgsp+uNjq9K6ikycCpS4OXHhwNJk1yW07tRxRetUUmQ8YVFngOZwx5nvxadvGN1aWTQbWIRGXa7ibR9aWTm94thlACMBuXEd3o8EvadvoqDLqlCd9UhYRXEQSISZCRbFp4HGe3z4pN3rC6NTKEwvvikBpznK4XMvLbzfZjKyytGBk7kneEjDvPaxvVdUwLsQRJkKsKyz4RMaV0cmWnh/ILQ5RvyvZM6MvO6bhXJzE2RgX2CK79CrpbrfcEqXJFJRTuQKlH3js4xo4rMdNgQeC5QMTLgOw7iGZFC6ncGhWOAr8ikYsYc2OhSJMLNkqsh0w8KpWUmd3o86bzIzIfyhGxWj4jM75HK3OFDIKONFKIkTTYLUQmZ5kAp5FuIDBFfIk8rtSo8CjLv33x4+8lnB91+/OPP71TBeQhktBke0oaKyQhTQUaeHUvgsrwIGcn4NkeTQGZQCWyEh0fmhw8hLbe3t88OCv8IwXn7vRI1D4KMNmlaRft3dr6wODJLmcNpWJsaeGBC99cquTPpRJekKRhe5x5eKTn1gZB58zHk5RmvEJs/fih+mw+DTNicd3u4LxQqJnGuMDITIiaGeJWuNoOrOMcz4SDbU9ohLdNeVgUyQ1b8HxaZN7cILwk1bwtD81DIaIe5isPuc45DAAloBTQFZJCAuUNrEtuzNtFyjRAZOJUnXTVa9oHiX0aCjpGYXmMXTSg/LjI/fBQCc4Tm30VK0R4UmUiTfvduMRq2dNfyQ3qw15JpgKLIoKnixLac3V0cnydEBgSBIlGglMYNj1OcAgI/OqMfEgTszjquwqMi80EKTKTPbr8rUM6DI5NpMu93150B4hfTrkRRZJA5ZmIF9F6fQmQmcEnDltQb1CiJnkO2KyBWi67CIyLz+38+ywHmYGj+zC1Ie0RkjprUoXmgl3gKIjOFw3h3yK4UCZHR9gA3T7wuCRcxY5uEZPiaLdYpuhgyopDPVO9v80xMbGj+yCtJe3RkQnsOngEdKQKRQePNkSwlPiRBjAwS4yyOUIbxWDHEMIfR5vu3iyGTN5H0PrdTSpn5b05R2hNABrYAHZoPkMFLBosEMLAdiXuLf0ESDISxv1gg59GUgH4JcgfDs86DjN4QHntQURtT0M48PjJL/inQe87DbDHMACyBpYLxC3DGLkEG+SZrtgMbJ2S3AO/4Cxyqg7A6aOjOhExOtMYnxYkJmfkgLUu7MDLbzphTB3kUfGPTyMAg7zZSQh+mOIBj4MNOj0EcVzTzLbQTkK7YniHUgrNhUuaZkJF/2OG/KsSEzLyRFaZdGJn5gEueJW1kloxvLbpjgq4p5v8CJwFJl4JjqhQZNO9sjNwn9LvS2gJqkcVN+LngUsgg2QiyIdP3BcZKLDM5yweX7ZhAEzswUBZ0TLRFxz7KDIP3YBoiaEMkczxFBg1QNgNwnRm2vOofrR6YEIQ+KbKhSSlkEN/LFS/Wvlcl5tntW2FhB10WGZiH6IMHwW9VyvTMyOZShg56bolfmQjmrFGdF7afkU6sOtMHzjvYdGFyp3AOGaxUIcasFDJw4BUWJOyaFLulg5mRT+ldFhnYSsB9BUaGcQKg0xrtB7/goIGNyPue8Co0MkjebCTbG3Vjwuc1QRxMsiIG3SnewZggsV+lkMG22tC9IZ7E8oOykQnNzDPhtSNdFhnk7hzW4PdBMDVzFTza3PGtYDMabTrxnBt8XvzsVovAZUvKRRbtlOe4VsNo7c2B6Kst6VYY0P3ls6E6DqxCKWQ0NNGHeI3KeDQajfeM5/5W3cjkecAXHmRjs+heZiT6I7hxGtMvwyeRlEKc8BHEyCBHOTuqlEngkBG/bwmNzFISoGzI1lCzrTCQ3SPoZzfp2GQMMtTLIQO7+/icaNNL4oypQ8sYmdDMfBRf/OLI3GNWwvHtXbQ949D3kLeb9QHgkIlWknGE2HynkkzHLdc+CUsFDg89EK8p7U6cXT9bdcdeDpL0TZOa7YQ+GrCG5ZCR7z3JzGJ+KGNkQjMji4S49FQenFg5FhVtAou+LNzXcoBzzChBBvNfDc/uLFaL0d4yD0MosAcNM3eDDM3yRUcqYzthGa43bIZVaEUfozJc6HOVQ0Zoeo+VGlOHljIyoZmRBUJcPPVNdXfUAfcFBOlmugkyggQ74pjx7sR2LQeZifzLX7joJFi4TS9XBWdxLmSEPdPxiuPswO9KIvPsM8nVL75gIIh9EsldcWWjA+D06KTzyQsTDX0OOTJaX3Wj55BuZpCSl+Nnzc+GDDalmIpGpmS/JO+ZLo7MRGljfwLm4GSeaYYMtk0zXZ8Nsjkat6igkqN3UIOdP8v5WEPkDJ8LGWk3SiPzsTQy34svfvllyb7CozCQqd215FFkCffyfiWaPclDRpuqfVynwc+4ys1M9L2DsyEj82YoZH4v2y89u5UsaD/ASva04EffokQAbEl2KO6aMmSkPpMZVScXGa0v/MQuUtUBiI+QfqqMRIP+syGjzcTdKIVMuSH2AZlPxNd+iOCHbcEEQuLgi/h7ITPUth7I/uGJjss9+chok2HRsbYJVy3C3lFy9mEp6nzIaCvhJ2soZN6URkbm/z5IvMxyXyTHFibxx5pge1AdRO8E0xG6M4PD8nkBZKJ9NYt466SBxwOJP+17tElnREar44scDDJ/noDMe+GVHyjEqt7OexSmL0mdHQncDGbzoDH+wJIupBAy2nLTyKsp8QNRolNT0D3Gfs85kdG6gu+/U8iUHjBJh0wPFZW3HLUlWzIYtrWQpihOK6h/y+43tW4gHSCx4qFwMWQ0bb5pSwZ5hmMF4s0XtRnyianQKMURQGdFRpts0PeQQubfUSptOcmQIQYrO0PG5H5Cvmd8VMfhjjQRw72sG76JOTXEtCp3uTmt9y0LMselAsx3fCMSq5OMwWYeV0nhNjLLu30bzewkpm835UGTy82AW2gNjVJyytTnqpBuflRzuV9IPjIR3Q3osdPI3H5SVpKcpqDCyciQMbif9J2gkJ3OF4JvOdhfDz3ftR1y5JQQx3R9b7guttHYvN7yPerk8NwB/8LPm26y2ZlBHNfaZRvT3xO+krJr1XbRtmlcTYM69hkK/tRFCJaTVYGKSpg6XBWy3cX5ylVyE00Omsx20W5ZTlpN2xvIEvf+kpp3183xcK8beiXYjdZdpX3pJtvaYjNshSfvO5v6PXrudr1pue2GX+ksuiXz8Y9aTmuL8eFilWA8ytltllG/tgnMsAr6sHkv3XzxLJrfr0e7oGIYleF4UduedM9XXXXVVQX1P8kD+kONu8Y/AAAAAElFTkSuQmCC;" vertex="1" parent="1">
          <mxGeometry x="40" y="10" width="249.78" height="40" as="geometry" />
        </mxCell>
        <mxCell id="uBDGktFILzNGsmd_UJsv-2" value="Order Management Tables" style="shape=table;startSize=30;container=1;collapsible=0;childLayout=tableLayout;fixedRows=1;rowLines=0;fontStyle=0;strokeColor=default;fontSize=14;" vertex="1" parent="1">
          <mxGeometry x="40" y="60" width="180" height="210" as="geometry" />
        </mxCell>
        <mxCell id="uBDGktFILzNGsmd_UJsv-3" value="" style="shape=tableRow;horizontal=0;startSize=0;swimlaneHead=0;swimlaneBody=0;top=0;left=0;bottom=0;right=0;collapsible=0;dropTarget=0;fillColor=none;points=[[0,0.5],[1,0.5]];portConstraint=eastwest;strokeColor=inherit;fontSize=16;" vertex="1" parent="uBDGktFILzNGsmd_UJsv-2">
          <mxGeometry y="30" width="180" height="30" as="geometry" />
        </mxCell>
        <mxCell id="uBDGktFILzNGsmd_UJsv-4" value="1" style="shape=partialRectangle;html=1;whiteSpace=wrap;connectable=0;fillColor=none;top=0;left=0;bottom=0;right=0;overflow=hidden;pointerEvents=1;strokeColor=inherit;fontSize=15;" vertex="1" parent="uBDGktFILzNGsmd_UJsv-3">
          <mxGeometry width="40" height="30" as="geometry">
            <mxRectangle width="40" height="30" as="alternateBounds" />
          </mxGeometry>
        </mxCell>
        <mxCell id="uBDGktFILzNGsmd_UJsv-5" value="aisles.csv" style="shape=partialRectangle;html=1;whiteSpace=wrap;connectable=0;fillColor=none;top=0;left=0;bottom=0;right=0;align=left;spacingLeft=6;overflow=hidden;strokeColor=inherit;fontSize=15;" vertex="1" parent="uBDGktFILzNGsmd_UJsv-3">
          <mxGeometry x="40" width="140" height="30" as="geometry">
            <mxRectangle width="140" height="30" as="alternateBounds" />
          </mxGeometry>
        </mxCell>
        <mxCell id="uBDGktFILzNGsmd_UJsv-6" value="" style="shape=tableRow;horizontal=0;startSize=0;swimlaneHead=0;swimlaneBody=0;top=0;left=0;bottom=0;right=0;collapsible=0;dropTarget=0;fillColor=none;points=[[0,0.5],[1,0.5]];portConstraint=eastwest;strokeColor=inherit;fontSize=16;" vertex="1" parent="uBDGktFILzNGsmd_UJsv-2">
          <mxGeometry y="60" width="180" height="30" as="geometry" />
        </mxCell>
        <mxCell id="uBDGktFILzNGsmd_UJsv-7" value="2" style="shape=partialRectangle;html=1;whiteSpace=wrap;connectable=0;fillColor=none;top=0;left=0;bottom=0;right=0;overflow=hidden;strokeColor=inherit;fontSize=15;" vertex="1" parent="uBDGktFILzNGsmd_UJsv-6">
          <mxGeometry width="40" height="30" as="geometry">
            <mxRectangle width="40" height="30" as="alternateBounds" />
          </mxGeometry>
        </mxCell>
        <mxCell id="uBDGktFILzNGsmd_UJsv-8" value="departments.csv" style="shape=partialRectangle;html=1;whiteSpace=wrap;connectable=0;fillColor=none;top=0;left=0;bottom=0;right=0;align=left;spacingLeft=6;overflow=hidden;strokeColor=inherit;fontSize=15;" vertex="1" parent="uBDGktFILzNGsmd_UJsv-6">
          <mxGeometry x="40" width="140" height="30" as="geometry">
            <mxRectangle width="140" height="30" as="alternateBounds" />
          </mxGeometry>
        </mxCell>
        <mxCell id="uBDGktFILzNGsmd_UJsv-9" value="" style="shape=tableRow;horizontal=0;startSize=0;swimlaneHead=0;swimlaneBody=0;top=0;left=0;bottom=0;right=0;collapsible=0;dropTarget=0;fillColor=none;points=[[0,0.5],[1,0.5]];portConstraint=eastwest;strokeColor=inherit;fontSize=16;" vertex="1" parent="uBDGktFILzNGsmd_UJsv-2">
          <mxGeometry y="90" width="180" height="30" as="geometry" />
        </mxCell>
        <mxCell id="uBDGktFILzNGsmd_UJsv-10" value="3" style="shape=partialRectangle;html=1;whiteSpace=wrap;connectable=0;fillColor=none;top=0;left=0;bottom=0;right=0;overflow=hidden;strokeColor=inherit;fontSize=15;" vertex="1" parent="uBDGktFILzNGsmd_UJsv-9">
          <mxGeometry width="40" height="30" as="geometry">
            <mxRectangle width="40" height="30" as="alternateBounds" />
          </mxGeometry>
        </mxCell>
        <mxCell id="uBDGktFILzNGsmd_UJsv-11" value="order_products.csv" style="shape=partialRectangle;html=1;whiteSpace=wrap;connectable=0;fillColor=none;top=0;left=0;bottom=0;right=0;align=left;spacingLeft=6;overflow=hidden;strokeColor=inherit;fontSize=15;" vertex="1" parent="uBDGktFILzNGsmd_UJsv-9">
          <mxGeometry x="40" width="140" height="30" as="geometry">
            <mxRectangle width="140" height="30" as="alternateBounds" />
          </mxGeometry>
        </mxCell>
        <mxCell id="uBDGktFILzNGsmd_UJsv-18" style="shape=tableRow;horizontal=0;startSize=0;swimlaneHead=0;swimlaneBody=0;top=0;left=0;bottom=0;right=0;collapsible=0;dropTarget=0;fillColor=none;points=[[0,0.5],[1,0.5]];portConstraint=eastwest;strokeColor=inherit;fontSize=16;" vertex="1" parent="uBDGktFILzNGsmd_UJsv-2">
          <mxGeometry y="120" width="180" height="30" as="geometry" />
        </mxCell>
        <mxCell id="uBDGktFILzNGsmd_UJsv-19" value="4" style="shape=partialRectangle;html=1;whiteSpace=wrap;connectable=0;fillColor=none;top=0;left=0;bottom=0;right=0;overflow=hidden;strokeColor=inherit;fontSize=15;" vertex="1" parent="uBDGktFILzNGsmd_UJsv-18">
          <mxGeometry width="40" height="30" as="geometry">
            <mxRectangle width="40" height="30" as="alternateBounds" />
          </mxGeometry>
        </mxCell>
        <mxCell id="uBDGktFILzNGsmd_UJsv-20" value="orders.csv" style="shape=partialRectangle;html=1;whiteSpace=wrap;connectable=0;fillColor=none;top=0;left=0;bottom=0;right=0;align=left;spacingLeft=6;overflow=hidden;strokeColor=inherit;fontSize=15;" vertex="1" parent="uBDGktFILzNGsmd_UJsv-18">
          <mxGeometry x="40" width="140" height="30" as="geometry">
            <mxRectangle width="140" height="30" as="alternateBounds" />
          </mxGeometry>
        </mxCell>
        <mxCell id="uBDGktFILzNGsmd_UJsv-15" style="shape=tableRow;horizontal=0;startSize=0;swimlaneHead=0;swimlaneBody=0;top=0;left=0;bottom=0;right=0;collapsible=0;dropTarget=0;fillColor=none;points=[[0,0.5],[1,0.5]];portConstraint=eastwest;strokeColor=inherit;fontSize=16;" vertex="1" parent="uBDGktFILzNGsmd_UJsv-2">
          <mxGeometry y="150" width="180" height="30" as="geometry" />
        </mxCell>
        <mxCell id="uBDGktFILzNGsmd_UJsv-16" value="5" style="shape=partialRectangle;html=1;whiteSpace=wrap;connectable=0;fillColor=none;top=0;left=0;bottom=0;right=0;overflow=hidden;strokeColor=inherit;fontSize=15;" vertex="1" parent="uBDGktFILzNGsmd_UJsv-15">
          <mxGeometry width="40" height="30" as="geometry">
            <mxRectangle width="40" height="30" as="alternateBounds" />
          </mxGeometry>
        </mxCell>
        <mxCell id="uBDGktFILzNGsmd_UJsv-17" value="products.csv" style="shape=partialRectangle;html=1;whiteSpace=wrap;connectable=0;fillColor=none;top=0;left=0;bottom=0;right=0;align=left;spacingLeft=6;overflow=hidden;strokeColor=inherit;fontSize=15;" vertex="1" parent="uBDGktFILzNGsmd_UJsv-15">
          <mxGeometry x="40" width="140" height="30" as="geometry">
            <mxRectangle width="140" height="30" as="alternateBounds" />
          </mxGeometry>
        </mxCell>
        <mxCell id="uBDGktFILzNGsmd_UJsv-12" style="shape=tableRow;horizontal=0;startSize=0;swimlaneHead=0;swimlaneBody=0;top=0;left=0;bottom=0;right=0;collapsible=0;dropTarget=0;fillColor=none;points=[[0,0.5],[1,0.5]];portConstraint=eastwest;strokeColor=inherit;fontSize=16;" vertex="1" parent="uBDGktFILzNGsmd_UJsv-2">
          <mxGeometry y="180" width="180" height="30" as="geometry" />
        </mxCell>
        <mxCell id="uBDGktFILzNGsmd_UJsv-13" style="shape=partialRectangle;html=1;whiteSpace=wrap;connectable=0;fillColor=none;top=0;left=0;bottom=0;right=0;overflow=hidden;strokeColor=inherit;fontSize=16;" vertex="1" parent="uBDGktFILzNGsmd_UJsv-12">
          <mxGeometry width="40" height="30" as="geometry">
            <mxRectangle width="40" height="30" as="alternateBounds" />
          </mxGeometry>
        </mxCell>
        <mxCell id="uBDGktFILzNGsmd_UJsv-14" style="shape=partialRectangle;html=1;whiteSpace=wrap;connectable=0;fillColor=none;top=0;left=0;bottom=0;right=0;align=left;spacingLeft=6;overflow=hidden;strokeColor=inherit;fontSize=16;" vertex="1" parent="uBDGktFILzNGsmd_UJsv-12">
          <mxGeometry x="40" width="140" height="30" as="geometry">
            <mxRectangle width="140" height="30" as="alternateBounds" />
          </mxGeometry>
        </mxCell>
      </root>
    </mxGraphModel>
  </diagram>
</mxfile>
